<svg xmlns="http://www.w3.org/2000/svg" viewBox="0 0 533.5 544.3"><path fill="#4285F4" d="M533.5 278.4c0-18.5-1.5-37.2-4.7-55.2H272v104.5h146.9c-6.3 34-25.3 62.9-54 82v68.4h87.3c51-47 80.3-116.4 80.3-199.7z"/><path fill="#34A853" d="M272 544.3c73.2 0 134.6-24.1 179.5-65.5l-87.3-68.4c-24.2 16.3-55.1 25.8-92.2 25.8-70 0-129.4-47.2-150.6-110.6H31.6v69.4C76.8 482.9 169.6 544.3 272 544.3z"/><path fill="#FBBC05" d="M121.4 325.6c-10.6-31.3-10.6-64.9 0-96.2V160H31.6C11.2 201.6 0 245 0 272.1s11.2 70.5 31.6 112.1l89.8-58.6z"/><path fill="#EA4335" d="M272 109.9c39.7 0 75.2 13.7 103.3 40.6l77.6-77.6C406.6 24.3 345.2 0 272 0 169.6 0 76.8 61.4 31.6 160l89.8 69.4C142.6 157.1 202 109.9 272 109.9z"/></svg>